<?xml version="1.0" encoding="utf-8"?>
<!-- Generator: Adobe Illustrator 23.0.0, SVG Export Plug-In . SVG Version: 6.00 Build 0)  -->
<svg version="1.1" id="Layer_1" xmlns="http://www.w3.org/2000/svg" xmlns:xlink="http://www.w3.org/1999/xlink" x="0px" y="0px"
	 viewBox="0 0 422.5 134.7" style="enable-background:new 0 0 422.5 134.7;" xml:space="preserve">
<style type="text/css">
	.st0{fill:#FFFFFF;}
	.st1{opacity:0.54;}
</style>
<title>websiteLogo2</title>
<path class="st0" d="M0.2,33.7"/>
<polygon class="st0" points="59.3,0 0.2,33.5 0,101.7 38.7,122.7 38.8,49.9 24.5,57.9 24.3,101.4 11.3,94.7 11.7,40.5 59.3,13.1 "/>
<polygon class="st0" points="59.1,0 118.2,33.5 118.3,101.7 79.7,122.7 79.5,49.9 93.8,57.9 94.1,101.4 107.1,94.7 106.6,40.5 
	59.1,13.1 59.1,3 59.1,2.4 "/>
<polygon class="st0" points="59.3,28.9 44.8,37.6 44.4,126.6 59.3,134.7 "/>
<g class="st1">
	<polygon class="st0" points="59.3,28.9 73.8,37.6 74.2,126.6 59.3,134.7 	"/>
</g>
<path class="st0" d="M197.4,134.7"/>
<path class="st0" d="M166.9,31.2l12.9,34.7v0.4h-6.5L170,57h-14.1l-3.3,9.3h-6.3v-0.4l12.9-34.7H166.9z M157.7,52h10.6l-5.3-15.1
	L157.7,52z"/>
<path class="st0" d="M217.9,43.4c1.2,1.2,1.8,3.1,1.8,5.5v17.4h-5.9V50.9c0-0.9-0.1-1.9-0.3-2.8c-0.2-0.6-0.5-1.1-1-1.4
	c-0.6-0.3-1.3-0.5-2-0.4c-2,0.1-4,0.6-5.7,1.6c0,0.3,0,0.7,0,1v17.4h-5.9V50.9c0-0.9-0.1-1.9-0.3-2.8c-0.2-0.6-0.5-1.1-1-1.4
	c-0.6-0.3-1.3-0.5-2-0.4c-0.9,0-1.9,0.2-2.8,0.4c-1,0.3-1.9,0.7-2.8,1.2v18.4h-5.9V42.4l5.9-0.6v2.1c2.4-1.5,5.1-2.3,7.9-2.3
	c2.7,0,4.7,0.9,5.7,2.7c1.4-0.8,2.9-1.5,4.4-2c1.5-0.5,3.1-0.8,4.7-0.8C214.6,41.4,216.5,42.1,217.9,43.4z"/>
<path class="st0" d="M247.3,44.8c1.6,2.2,2.4,5.2,2.4,8.9c0.1,2.7-0.6,5.4-2,7.8c-1.3,1.9-3.1,3.4-5.2,4.3c-2.1,0.8-4.4,1.3-6.7,1.3
	c-1.4,0-2.8-0.1-4.2-0.3c-1.7-0.3-3.5-0.7-5.1-1.2V29l5.9-0.6v15.4c2.3-1.4,5-2.2,7.8-2.3C243.3,41.5,245.7,42.6,247.3,44.8z
	 M241.4,60.4c1.5-1.4,2.2-3.7,2.2-6.7c0.1-1.9-0.3-3.9-1.3-5.5c-0.9-1.3-2.4-1.9-4-1.8c-2.1,0.1-4.1,0.6-5.9,1.6v14.3
	c1,0.2,2.1,0.3,3.2,0.3C237.8,62.6,239.9,61.8,241.4,60.4L241.4,60.4z"/>
<path class="st0" d="M276.8,31.2v5.3h-11.6v29.8H259V36.5h-11.7v-5.3H276.8z"/>
<path class="st0" d="M295.8,55.5h-16.1c0,1.9,0.7,3.8,2,5.3c1.2,1.1,2.9,1.7,4.5,1.7c1.2,0,2.4-0.2,3.5-0.5c1.2-0.4,2.4-1,3.6-1.7
	l2.1,3.8c-1.3,0.9-2.8,1.7-4.3,2.2c-1.7,0.6-3.5,0.8-5.2,0.8c-2.1,0-4.2-0.4-6.1-1.3c-1.8-0.8-3.3-2.2-4.3-4
	c-1.1-2.2-1.7-4.7-1.6-7.2c0-2.3,0.4-4.6,1.4-6.7c0.8-1.9,2.2-3.5,4-4.6c1.9-1.2,4.1-1.7,6.4-1.7c2-0.1,3.9,0.4,5.7,1.3
	c1.5,0.8,2.7,2.1,3.5,3.7c0.8,1.6,1.2,3.5,1.2,5.3C296,53.1,295.9,54.3,295.8,55.5z M281.8,47.2c-1,1.2-1.7,2.6-1.9,4.2h10.2v-0.2
	c0.1-1.5-0.3-3-1.3-4.1c-0.9-0.9-2.1-1.4-3.4-1.3C284.1,45.7,282.8,46.2,281.8,47.2L281.8,47.2z"/>
<path class="st0" d="M321.1,43.4c1.3,1.2,1.9,3.1,1.9,5.6v17.3h-5.9V50.9c0-0.9-0.1-1.9-0.4-2.8c-0.2-0.6-0.6-1.1-1.2-1.4
	c-0.7-0.3-1.5-0.5-2.3-0.4c-2.2,0.1-4.2,0.7-6.1,1.7v18.3h-5.9V42.4l5.9-0.6v2.3c2.5-1.6,5.5-2.5,8.5-2.5
	C317.6,41.4,319.6,42.1,321.1,43.4z"/>
<path class="st0" d="M351.2,28.5v37.9h-5.1l-0.4-1.8c-2.2,1.5-4.8,2.4-7.5,2.5c-2.8,0.2-5.6-1-7.5-3.2c-1.7-2.1-2.6-5.1-2.6-9
	c-0.1-2.6,0.5-5.1,1.7-7.4c1-1.9,2.6-3.4,4.5-4.4c1.9-1,4.1-1.5,6.2-1.5c1.6,0,3.2,0.3,4.8,0.7V29L351.2,28.5z M339.7,62.4
	c2-0.1,4-0.7,5.7-1.7v-14c-1.3-0.4-2.7-0.7-4.1-0.7c-1.3,0-2.6,0.3-3.7,1c-1.1,0.7-2,1.8-2.5,3c-0.6,1.6-0.9,3.2-0.9,4.9
	C334.2,59.9,336,62.4,339.7,62.4z"/>
<path class="st0" d="M378.6,55.5h-16.1c0,1.9,0.7,3.8,2,5.3c1.2,1.1,2.9,1.7,4.6,1.7c1.2,0,2.4-0.2,3.5-0.5c1.2-0.4,2.4-1,3.6-1.7
	l2,3.8c-1.3,0.9-2.8,1.7-4.4,2.2c-1.7,0.6-3.5,0.8-5.2,0.8c-2.1,0-4.2-0.4-6.1-1.3c-1.8-0.8-3.3-2.2-4.3-4c-1.1-2.2-1.7-4.7-1.6-7.2
	c0-2.3,0.4-4.6,1.4-6.7c0.8-1.9,2.2-3.5,4-4.6c1.9-1.2,4.1-1.7,6.4-1.7c2,0,4,0.4,5.7,1.4c1.5,0.8,2.7,2.1,3.5,3.7
	c0.8,1.6,1.2,3.5,1.2,5.3C378.7,53.1,378.7,54.3,378.6,55.5z M364.6,47.2c-1,1.2-1.7,2.6-1.9,4.2h10.2v-0.2c0.1-1.5-0.3-3-1.3-4.1
	c-0.9-0.9-2.1-1.4-3.4-1.3C366.9,45.7,365.5,46.2,364.6,47.2z"/>
<path class="st0" d="M399.9,42l-1,6c-0.5-0.2-1.1-0.4-1.6-0.5c-0.6-0.1-1.1-0.2-1.7-0.2c-1,0-2,0.2-3,0.7c-1.1,0.7-2.1,1.6-2.7,2.7
	v15.6h-5.9v-24l5.9-0.5v3.4c0.8-1.1,1.9-2,3.1-2.7c1.2-0.6,2.5-0.9,3.8-0.9C397.8,41.6,398.9,41.7,399.9,42z"/>
<path class="st0" d="M406.4,66.2c-1.8-0.5-3.4-1.4-4.9-2.4l2.5-4c2.4,1.8,5.2,2.7,8.2,2.8c1.1,0.1,2.2-0.2,3.2-0.7
	c1.1-0.7,1.5-2.1,0.8-3.2c0,0,0,0,0,0l-0.1-0.1c-0.4-0.5-0.9-0.9-1.5-1.1c-1-0.5-2-0.8-3.1-1.1l-1.6-0.4c-2.1-0.4-4-1.4-5.6-2.7
	c-1.2-1.2-1.8-2.8-1.7-4.4c0-1.3,0.4-2.6,1.2-3.7c0.9-1.1,2-2,3.3-2.5c1.5-0.6,3.2-0.9,4.9-0.9c3.4,0,6.7,0.9,9.6,2.7l-2.3,3.9
	c-1.2-0.7-2.5-1.2-3.9-1.6c-1.1-0.3-2.2-0.5-3.4-0.5c-0.9-0.1-1.8,0.2-2.6,0.7c-0.6,0.4-0.9,1-0.9,1.7c0,0.4,0.1,0.8,0.3,1.1
	c0.3,0.4,0.7,0.7,1.1,0.8c0.8,0.3,1.5,0.6,2.4,0.7l1.8,0.4c2.4,0.5,4.6,1.5,6.4,3.1c1.3,1.2,2.1,3,2,4.8c0,1.4-0.4,2.8-1.1,4
	c-0.8,1.2-2,2.2-3.4,2.7c-1.8,0.7-3.6,1.1-5.5,1C410.3,67.1,408.3,66.8,406.4,66.2z"/>
<path class="st0" d="M149.7,78.4h3.8l4.8,10.1l4.8-10.1h3.7l-6.8,13.1v7.4h-3.4v-7.4L149.7,78.4z"/>
<path class="st0" d="M176.4,99.1c-4.6,0-8.1-3.3-8.1-8.4c0-4.6,3.7-8.3,8.3-8.3s8.3,3.7,8.3,8.3c0.2,4.5-3.4,8.3-7.9,8.4
	c0,0,0,0,0,0C176.8,99.1,176.6,99.1,176.4,99.1z M176.4,96.2c2.5,0,5-1.8,5-5.5s-2.4-5.5-4.9-5.5s-4.8,1.8-4.8,5.5
	S173.9,96.2,176.4,96.2L176.4,96.2z"/>
<path class="st0" d="M203,98.9h-3.4v-1.9c-1.2,1.4-3,2.2-4.8,2.2c-3.8,0-6.7-2.4-6.7-6.9v-9.6h3.3v9.1c0,3,1.6,4.5,4.1,4.5
	s4.1-1.5,4.1-4.5v-9.1h3.4V98.9z"/>
<path class="st0" d="M210.8,98.9h-3.4V82.6h3.4V85c1-1.7,2.9-2.7,4.9-2.6v3.5h-0.9c-2.5,0-4,1-4,4.5L210.8,98.9L210.8,98.9z"/>
<path class="st0" d="M244.1,88.7c0,6.3-4.3,10.2-10.9,10.2h-6.7V78.4h6.7C239.7,78.4,244.1,82.3,244.1,88.7z M233.1,96.1
	c4.8,0,7.4-2.8,7.4-7.4s-2.6-7.6-7.4-7.6h-3.3v15L233.1,96.1L233.1,96.1z"/>
<path class="st0" d="M250.8,98.9h-3.4V82.6h3.4V85c1-1.7,2.9-2.7,4.9-2.6v3.5h-0.9c-2.5,0-4,1-4,4.5L250.8,98.9L250.8,98.9z"/>
<path class="st0" d="M265.8,99.1c-4.7,0-8.1-3.3-8.1-8.4s3.3-8.4,8.1-8.4c4.2-0.2,7.7,3,7.9,7.2c0,0,0,0,0,0c0,0.3,0,0.5,0,0.8
	c0,0.6,0,1.1-0.1,1.7h-12.4c0.1,2.5,2.2,4.4,4.6,4.3c1.6,0.1,3.2-0.8,3.8-2.3h3.6C272.2,97.2,269.1,99.3,265.8,99.1z M261.1,89.3h9
	c-0.1-2.3-2-4.2-4.4-4.1h-0.2C263.2,85.2,261.3,87,261.1,89.3L261.1,89.3z"/>
<path class="st0" d="M283.6,82.3c2.2-0.1,4.3,0.9,5.6,2.7v-2.4h3.4v16.3h-3.4v-2.4c-1.4,1.7-3.5,2.7-5.7,2.7c-4.2,0-7.6-3.5-7.6-8.5
	S279.3,82.3,283.6,82.3z M284.3,85.3c-2.5,0-4.9,1.9-4.9,5.4s2.4,5.6,4.9,5.6s4.9-2,4.9-5.5S286.8,85.3,284.3,85.3L284.3,85.3z"/>
<path class="st0" d="M320.1,89.8c0-3-1.6-4.5-4.1-4.5s-4.1,1.5-4.1,4.5v9.1h-3.3v-9.1c0-3-1.6-4.5-4.1-4.5s-4.1,1.5-4.1,4.5v9.1H297
	V82.6h3.4v1.9c2.6-2.7,6.8-2.8,9.5-0.3c0.4,0.4,0.8,0.9,1.1,1.4c1.2-2,3.3-3.3,5.7-3.2c3.8,0,6.7,2.4,6.7,6.9v9.6H320L320.1,89.8
	L320.1,89.8z"/>
<path class="st0" d="M348.4,89.9h-9.7v9h-3.4V78.4h3.4v8.8h9.7v-8.8h3.4v20.5h-3.4V89.9z"/>
<path class="st0" d="M363.3,99.1c-4.6,0-8.1-3.3-8.1-8.4c0-4.6,3.7-8.3,8.3-8.3c4.6,0,8.3,3.7,8.3,8.3c0.2,4.5-3.4,8.3-7.9,8.4
	C363.7,99.2,363.5,99.2,363.3,99.1z M363.3,96.2c2.5,0,5-1.8,5-5.5s-2.4-5.5-4.9-5.5s-4.8,1.8-4.8,5.5S360.7,96.2,363.3,96.2
	L363.3,96.2z"/>
<path class="st0" d="M398.1,89.8c0-3-1.6-4.5-4.1-4.5s-4.1,1.5-4.1,4.5v9.1h-3.3v-9.1c0-3-1.6-4.5-4.1-4.5s-4.1,1.5-4.1,4.5v9.1
	h-3.4V82.6h3.4v1.9c2.5-2.7,6.8-2.9,9.5-0.3c0.4,0.4,0.8,0.9,1.1,1.4c1.2-2,3.3-3.3,5.7-3.2c3.8,0,6.7,2.4,6.7,6.9v9.6h-3.3
	L398.1,89.8L398.1,89.8z"/>
<path class="st0" d="M412.8,99.1c-4.7,0-8.1-3.3-8.1-8.4s3.3-8.4,8.1-8.4c4.2-0.2,7.7,3,7.9,7.2c0,0,0,0,0,0c0,0.3,0,0.5,0,0.8
	c0,0.6,0,1.1-0.1,1.7h-12.4c0.1,2.5,2.2,4.4,4.6,4.3c1.6,0.1,3.2-0.8,3.8-2.3h3.6C419.2,97.2,416.1,99.3,412.8,99.1z M408.2,89.3h9
	c-0.1-2.3-2-4.2-4.3-4.1c0,0,0,0,0,0h-0.2C410.3,85.1,408.3,86.9,408.2,89.3L408.2,89.3z"/>
</svg>
