<svg id="Layer_1" data-name="Layer 1" xmlns="http://www.w3.org/2000/svg" viewBox="0 0 422.41 134.7"><defs><style>.cls-1{fill:#3454d1;}.cls-2{opacity:0.54;}.cls-3{fill:#303030;}.cls-4{fill:#9a9ea6;}</style></defs><title>websiteLogo</title><path class="cls-1" d="M86.59,486.53" transform="translate(-86.44 -452.8)"/><polygon class="cls-1" points="59.29 0 0.15 33.5 0 101.72 38.7 122.7 38.81 49.89 24.52 57.85 24.3 101.44 11.26 94.67 11.71 40.5 59.29 13.07 59.29 0"/><polygon class="cls-1" points="59.06 0 118.2 33.5 118.35 101.72 79.65 122.7 79.54 49.89 93.83 57.85 94.05 101.44 107.09 94.67 106.64 40.5 59.06 13.07 59.06 2.96 59.06 2.39 59.06 0"/><polygon class="cls-1" points="59.29 28.9 44.82 37.61 44.37 126.55 59.29 134.7 59.29 28.9"/><g class="cls-2"><polygon class="cls-1" points="59.27 28.9 73.75 37.61 74.2 126.55 59.27 134.7 59.27 28.9"/></g><path class="cls-1" d="M283.84,587.5" transform="translate(-86.44 -452.8)"/><path class="cls-3" d="M253.31,484l12.95,34.72v.38h-6.5l-3.3-9.32H242.38l-3.25,9.32h-6.34v-.38L245.68,484Zm-9.21,20.8h10.56l-5.31-15.06Z" transform="translate(-86.44 -452.8)"/><path class="cls-3" d="M304.31,496.17q1.81,1.81,1.81,5.55v17.39h-5.85V503.73a9.3,9.3,0,0,0-.33-2.79,2.53,2.53,0,0,0-1-1.44,3.71,3.71,0,0,0-2-.43,12.36,12.36,0,0,0-5.74,1.63,6.6,6.6,0,0,1,0,1v17.39h-5.85V503.74a9.3,9.3,0,0,0-.33-2.79,2.53,2.53,0,0,0-1-1.44,3.71,3.71,0,0,0-1.95-.43,10,10,0,0,0-2.76.43,15.41,15.41,0,0,0-2.87,1.19v18.42h-5.85V495.18l5.85-.6v2.11a15.89,15.89,0,0,1,7.91-2.33c2.74,0,4.66.9,5.74,2.71a23.16,23.16,0,0,1,4.39-1.95,15,15,0,0,1,4.71-.76A6.8,6.8,0,0,1,304.31,496.17Z" transform="translate(-86.44 -452.8)"/><path class="cls-3" d="M333.76,497.61q2.39,3.25,2.38,8.94a13.54,13.54,0,0,1-2,7.75,11.31,11.31,0,0,1-5.17,4.25,17.54,17.54,0,0,1-6.66,1.27,29.69,29.69,0,0,1-4.17-.35A35.64,35.64,0,0,1,313,518.3V481.84l5.85-.6v15.38a15.47,15.47,0,0,1,7.75-2.28C329.78,494.35,332.17,495.44,333.76,497.61Zm-5.89,15.54q2.2-2.11,2.21-6.72a9.91,9.91,0,0,0-1.25-5.55,4.55,4.55,0,0,0-4-1.82,14.34,14.34,0,0,0-5.93,1.57v14.3a15.91,15.91,0,0,0,3.16.32A8,8,0,0,0,327.87,513.15Z" transform="translate(-86.44 -452.8)"/><path class="cls-1" d="M363.23,484v5.31h-11.6v29.79h-6.18V489.32H333.7V484Z" transform="translate(-86.44 -452.8)"/><path class="cls-1" d="M382.24,508.28H366.1a7.45,7.45,0,0,0,2,5.25,6.41,6.41,0,0,0,4.52,1.68,11.38,11.38,0,0,0,3.52-.51,19.83,19.83,0,0,0,3.58-1.65l2.06,3.79a17.25,17.25,0,0,1-4.36,2.17,16.34,16.34,0,0,1-5.23.81,14.47,14.47,0,0,1-6.15-1.25,9.34,9.34,0,0,1-4.25-4,14.32,14.32,0,0,1-1.57-7.15,16,16,0,0,1,1.35-6.74,10.53,10.53,0,0,1,4-4.63,11.71,11.71,0,0,1,6.39-1.68,11.3,11.3,0,0,1,5.69,1.33,8.67,8.67,0,0,1,3.52,3.68,11.58,11.58,0,0,1,1.19,5.28C382.4,505.77,382.35,507,382.24,508.28Zm-14-8.24a8,8,0,0,0-1.86,4.17h10.18v-.16a5.87,5.87,0,0,0-1.25-4.14,4.41,4.41,0,0,0-3.37-1.33A4.84,4.84,0,0,0,368.23,500Z" transform="translate(-86.44 -452.8)"/><path class="cls-1" d="M407.51,496.17q1.92,1.81,1.92,5.66v17.28h-5.85V503.73a8.9,8.9,0,0,0-.35-2.79A2.47,2.47,0,0,0,402,499.5a5.07,5.07,0,0,0-2.3-.43,13.88,13.88,0,0,0-6.12,1.68v18.36h-5.85V495.17l5.85-.6v2.33a16.84,16.84,0,0,1,8.45-2.55A7.61,7.61,0,0,1,407.51,496.17Z" transform="translate(-86.44 -452.8)"/><path class="cls-1" d="M437.66,481.25v37.87h-5.15l-.38-1.79a13.82,13.82,0,0,1-7.53,2.49,9.05,9.05,0,0,1-7.45-3.17c-1.72-2.11-2.57-5.1-2.57-9a14.74,14.74,0,0,1,1.71-7.39,11.1,11.1,0,0,1,4.52-4.47,13.28,13.28,0,0,1,6.23-1.46,17.88,17.88,0,0,1,4.77.7V481.84Zm-11.51,33.91a11.22,11.22,0,0,0,5.66-1.73v-14a12.64,12.64,0,0,0-4.08-.65,7,7,0,0,0-3.68,1,6.36,6.36,0,0,0-2.5,3,12,12,0,0,0-.9,4.93Q420.65,515.16,426.15,515.16Z" transform="translate(-86.44 -452.8)"/><path class="cls-1" d="M465,508.28H448.88a7.45,7.45,0,0,0,2,5.25,6.41,6.41,0,0,0,4.52,1.68,11.38,11.38,0,0,0,3.52-.51,19.83,19.83,0,0,0,3.58-1.65l2.06,3.79a17.25,17.25,0,0,1-4.36,2.17,16.34,16.34,0,0,1-5.23.81,14.47,14.47,0,0,1-6.15-1.25,9.34,9.34,0,0,1-4.25-4,14.32,14.32,0,0,1-1.57-7.15,16,16,0,0,1,1.35-6.74,10.53,10.53,0,0,1,4-4.63,11.71,11.71,0,0,1,6.39-1.68,11.3,11.3,0,0,1,5.69,1.33,8.67,8.67,0,0,1,3.52,3.68,11.58,11.58,0,0,1,1.19,5.28C465.18,505.77,465.12,507,465,508.28ZM451,500a8,8,0,0,0-1.86,4.17h10.19v-.16a5.87,5.87,0,0,0-1.25-4.14,4.41,4.41,0,0,0-3.37-1.33A4.88,4.88,0,0,0,451,500Z" transform="translate(-86.44 -452.8)"/><path class="cls-1" d="M486.36,494.84l-1,6a11.33,11.33,0,0,0-1.63-.49,8,8,0,0,0-1.68-.16,6.51,6.51,0,0,0-2.95.7,8,8,0,0,0-2.74,2.65v15.6h-5.85v-24l5.85-.54V498a9,9,0,0,1,3.06-2.71,8,8,0,0,1,3.77-.92A11.46,11.46,0,0,1,486.36,494.84Z" transform="translate(-86.44 -452.8)"/><path class="cls-1" d="M492.83,519a16.78,16.78,0,0,1-4.9-2.44l2.5-4a13.86,13.86,0,0,0,8.21,2.76,6.08,6.08,0,0,0,3.23-.7,2.35,2.35,0,0,0,.71-3.33,4,4,0,0,0-1.5-1.11,17.63,17.63,0,0,0-3.1-1.08l-1.63-.43a12.86,12.86,0,0,1-5.6-2.71,5.89,5.89,0,0,1-1.74-4.44,6.2,6.2,0,0,1,1.19-3.74,8,8,0,0,1,3.33-2.55,12.23,12.23,0,0,1,4.85-.92A18.69,18.69,0,0,1,508,497l-2.29,3.9a21,21,0,0,0-3.88-1.63,12.75,12.75,0,0,0-3.39-.43,4.55,4.55,0,0,0-2.62.65,2,2,0,0,0-.93,1.73,1.87,1.87,0,0,0,.33,1.11,2.59,2.59,0,0,0,1.15.81,15.27,15.27,0,0,0,2.35.73l1.75.43a15.1,15.1,0,0,1,6.42,3.06,6.27,6.27,0,0,1,2,4.79,7.06,7.06,0,0,1-1.14,4,7.63,7.63,0,0,1-3.41,2.74,13.63,13.63,0,0,1-5.53,1A19.19,19.19,0,0,1,492.83,519Z" transform="translate(-86.44 -452.8)"/><path class="cls-4" d="M236.18,531.15h3.75l4.76,10.07,4.76-10.07h3.72l-6.79,13.09v7.44H243v-7.44Z" transform="translate(-86.44 -452.8)"/><path class="cls-4" d="M262.89,551.94c-4.64,0-8.15-3.31-8.15-8.42a8.3,8.3,0,1,1,16.6,0A8.15,8.15,0,0,1,262.89,551.94Zm0-2.92c2.51,0,5-1.8,5-5.5s-2.39-5.46-4.9-5.46-4.82,1.77-4.82,5.46S260.35,549,262.89,549Z" transform="translate(-86.44 -452.8)"/><path class="cls-4" d="M289.42,551.68h-3.37v-1.95a6.06,6.06,0,0,1-4.81,2.19c-3.81,0-6.71-2.39-6.71-6.94v-9.57h3.34v9.07c0,3,1.63,4.52,4.08,4.52s4.11-1.54,4.11-4.52v-9.07h3.37v16.27Z" transform="translate(-86.44 -452.8)"/><path class="cls-4" d="M297.23,551.68h-3.37V535.4h3.37v2.36a5.3,5.3,0,0,1,4.87-2.63v3.49h-.86c-2.48,0-4,1-4,4.49v8.57Z" transform="translate(-86.44 -452.8)"/><path class="cls-4" d="M330.5,541.49c0,6.32-4.31,10.19-10.9,10.19h-6.71V531.15h6.71C326.18,531.15,330.5,535.14,330.5,541.49Zm-10.91,7.44c4.84,0,7.44-2.78,7.44-7.44s-2.6-7.59-7.44-7.59h-3.34v15h3.34Z" transform="translate(-86.44 -452.8)"/><path class="cls-4" d="M337.21,551.68h-3.37V535.4h3.37v2.36a5.3,5.3,0,0,1,4.88-2.63v3.49h-.86c-2.48,0-4,1-4,4.49v8.57Z" transform="translate(-86.44 -452.8)"/><path class="cls-4" d="M352.19,551.94c-4.67,0-8.12-3.31-8.12-8.42s3.31-8.39,8.12-8.39a7.59,7.59,0,0,1,7.92,8,10.18,10.18,0,0,1-.12,1.65H347.55a4.48,4.48,0,0,0,4.64,4.31,3.93,3.93,0,0,0,3.84-2.27h3.63A7.44,7.44,0,0,1,352.19,551.94Zm-4.61-9.86h9A4.23,4.23,0,0,0,352,538,4.43,4.43,0,0,0,347.58,542.08Z" transform="translate(-86.44 -452.8)"/><path class="cls-4" d="M370,535.14a6.91,6.91,0,0,1,5.64,2.63v-2.36H379v16.28h-3.4v-2.42a7,7,0,0,1-5.7,2.69c-4.22,0-7.62-3.46-7.62-8.48S365.69,535.14,370,535.14Zm.71,2.92c-2.51,0-4.93,1.89-4.93,5.41s2.42,5.55,4.93,5.55,4.93-2,4.93-5.5S373.22,538.06,370.68,538.06Z" transform="translate(-86.44 -452.8)"/><path class="cls-4" d="M406.52,542.58c0-3-1.63-4.52-4.08-4.52s-4.11,1.54-4.11,4.52v9.1H395v-9.1c0-3-1.62-4.52-4.08-4.52s-4.11,1.54-4.11,4.52v9.1h-3.37V535.4h3.37v1.86a6.2,6.2,0,0,1,4.82-2.13,6.27,6.27,0,0,1,5.85,3.22,6.37,6.37,0,0,1,5.67-3.22c3.81,0,6.71,2.39,6.71,6.94v9.6h-3.34v-9.09Z" transform="translate(-86.44 -452.8)"/><path class="cls-4" d="M434.86,542.7H425.2v9h-3.37V531.15h3.37V540h9.66v-8.8h3.37v20.53h-3.37Z" transform="translate(-86.44 -452.8)"/><path class="cls-4" d="M449.72,551.94c-4.64,0-8.15-3.31-8.15-8.42a8.3,8.3,0,1,1,16.6,0A8.15,8.15,0,0,1,449.72,551.94Zm0-2.92c2.51,0,5-1.8,5-5.5s-2.39-5.46-4.9-5.46-4.81,1.77-4.81,5.46S447.18,549,449.72,549Z" transform="translate(-86.44 -452.8)"/><path class="cls-4" d="M484.59,542.58c0-3-1.63-4.52-4.08-4.52s-4.11,1.54-4.11,4.52v9.1h-3.34v-9.1c0-3-1.63-4.52-4.08-4.52s-4.11,1.54-4.11,4.52v9.1H461.5V535.4h3.37v1.86a6.2,6.2,0,0,1,4.82-2.13,6.27,6.27,0,0,1,5.85,3.22,6.37,6.37,0,0,1,5.67-3.22c3.81,0,6.71,2.39,6.71,6.94v9.6h-3.34v-9.09Z" transform="translate(-86.44 -452.8)"/><path class="cls-4" d="M499.22,551.94c-4.67,0-8.12-3.31-8.12-8.42s3.31-8.39,8.12-8.39a7.59,7.59,0,0,1,7.92,8,10.18,10.18,0,0,1-.12,1.65H494.58a4.48,4.48,0,0,0,4.64,4.31,3.93,3.93,0,0,0,3.84-2.27h3.63A7.42,7.42,0,0,1,499.22,551.94Zm-4.61-9.86h9a4.23,4.23,0,0,0-4.55-4.11A4.43,4.43,0,0,0,494.61,542.08Z" transform="translate(-86.44 -452.8)"/></svg>