<svg id="Layer_1" data-name="Layer 1" xmlns="http://www.w3.org/2000/svg" viewBox="0 0 118.35 134.7"><defs><style>.cls-1{fill:#3454d1;}.cls-2{opacity:0.54;}</style></defs><title>websiteLogo3</title><polygon class="cls-1" points="59.29 0 0.15 33.5 0 101.72 38.7 122.7 38.81 49.89 24.52 57.85 24.3 101.44 11.26 94.67 11.71 40.5 59.29 13.07 59.29 0"/><polygon class="cls-1" points="59.06 0 118.2 33.5 118.35 101.72 79.65 122.7 79.54 49.89 93.83 57.85 94.05 101.44 107.09 94.67 106.64 40.5 59.06 13.07 59.06 2.96 59.06 2.39 59.06 0"/><polygon class="cls-1" points="59.29 28.9 44.82 37.61 44.37 126.55 59.29 134.7 59.29 28.9"/><g class="cls-2"><polygon class="cls-1" points="59.27 28.9 73.75 37.61 74.2 126.55 59.27 134.7 59.27 28.9"/></g></svg>